# AST/ASF file generated using VICON BodyLanguage
# -----------------------------------------------
:version 1.10
:name VICON
:units
  mass 1.0
  length 0.45
  angle deg
:documentation
   .ast/.asf automatically generated from VICON data using
   VICON BodyBuilder and BodyLanguage model FoxedUp or BRILLIANT.MOD
:root
   order TX TY TZ RX RY RZ
   axis XYZ
   position 0 0 0  
   orientation 0 0 0 
:bonedata
  begin
     id 1 
     name lhipjoint
     direction 0.78388 -0.462562 0.414208 
     length 3.01181 
     axis 0 0 0  XYZ
  end
  begin
     id 2 
     name lfemur
     direction 0.34202 -0.939693 0  
     length 6.04673  
     axis 0 0 20  XYZ
    dof rx ry rz
    limits (-160.0 20.0)
           (-70.0 70.0)
           (-60.0 70.0)
  end
  begin
     id 3 
     name ltibia
     direction 0.34202 -0.939693 0   
     length 7.211   
     axis 0 0 20   XYZ
    dof rx
    limits (-10.0 170.0)
  end
  begin
     id 4 
     name lfoot
     direction 0.121887 -0.334882 0.934344   
     length 2.13567   
     axis -90 7.62852e-016 20   XYZ
    dof rx rz
    limits (-45.0 90.0)
           (-70.0 20.0)
  end
  begin
     id 5 
     name ltoes
     direction 1.53555e-011 -4.2179e-011 1   
     length 1.05957   
     axis -90 7.62852e-016 20   XYZ
    dof rx
    limits (-90.0 20.0)
  end
  begin
     id 6 
     name rhipjoint
     direction -0.769387 -0.475875 0.426129   
     length 2.92756  
     axis 0 0 0  XYZ 
  end
  begin
     id 7 
     name rfemur
     direction -0.34202 -0.939693 0   
     length 6.35468   
     axis 0 0 -20   XYZ
    dof rx ry rz
    limits (-160.0 20.0)
           (-70.0 70.0)
           (-70.0 60.0)
  end
  begin
     id 8 
     name rtibia
     direction -0.34202 -0.939693 0   
     length 7.37886   
     axis 0 0 -20   XYZ
    dof rx
    limits (-10.0 170.0)
 end
 begin
     id 9 
     name rfoot
     direction -0.101763 -0.279592 0.954711   
     length 2.21478  
     axis -90 -7.62852e-016 -20   XYZ
    dof rx rz
    limits (-45.0 90.0)
           (-20.0 70.0)
  end
  begin
     id 10 
     name rtoes
     direction -1.53494e-011 -4.21851e-011 1   
     length 1.10506   
     axis -90 -7.62852e-016 -20   XYZ
    dof rx
    limits (-90.0 20.0)
  end
  begin
     id 11 
     name lowerback
     direction 0.00747405 0.999267 0.0375481   
     length 2.13259   
     axis 0 0 0   XYZ
    dof rx ry rz
    limits (-20.0 45.0)
           (-30.0 30.0)
           (-30.0 30.0)
  end
  begin
     id 12 
     name upperback
     direction 0.00661626 0.996177 0.0871029   
     length 2.10528   
     axis 0 0 0   XYZ
    dof rx ry rz
    limits (-20.0 45.0)
           (-30.0 30.0)
           (-30.0 30.0)
  end
  begin
     id 13 
     name thorax
     direction 0.00320659 0.997679 0.0680167   
     length 2.11338   
     axis 0 0 0   XYZ
    dof rx ry rz
    limits (-20.0 45.0)
           (-30.0 30.0)
           (-30.0 30.0)
  end
  begin
     id 14 
     name lowerneck
     direction 0.0374841 0.973033 0.227602   
     length 1.42765   
     axis 0 0 0   XYZ
    dof rx ry rz
    limits (-20.0 45.0)
           (-30.0 30.0)
           (-30.0 30.0)
  end
  begin
     id 15 
     name upperneck
     direction 0.00481585 0.989155 -0.146795   
     length 1.47593   
     axis 0 0 0   XYZ
    dof rx ry rz
    limits (-20.0 45.0)
           (-30.0 30.0)
           (-30.0 30.0)
  end
  begin
     id 16
     name head
     direction -0.00292522 0.997206 -0.0746423  
     length 1.48116  
     axis 0 0 0   XYZ
    dof rx ry rz
    limits (-20.0 45.0)
           (-30.0 30.0)
           (-30.0 30.0)
  end
  begin
     id 17 
     name lclavicle
     direction 0.951444 0.305606 0.0368784  
     length 3.01855  
     axis 0 0 0   XYZ
    dof ry rz
    limits (-20.0 10.0)
           (0.0 20.0)
  end
  begin
     id 18 
     name lhumerus
     direction 1 -4.48977e-011 2.61664e-027   
     length 5.52731   
     axis 180 -30 -90   XYZ
    dof rx ry rz
    limits (-60.0 90.0)
           (-90.0 90.0)
           (-90.0 90.0)
  end
  begin
     id 19
     name lradius
     direction 1 -4.48944e-011 8.22157e-027   
     length 3.11059   
     axis 180 -30 -90   XYZ
    dof rx
    limits (-10.0 170.0)
  end
  begin
     id 20
     name lwrist
     direction 1 -4.48976e-011 1.5779e-026   
     length 1.5553   
     axis -1.15221e-014 90 90   XYZ
    dof ry
    limits (-180.0 0.0)
 end
  begin
     id 21 
     name lhand
     direction 1 -4.49025e-011 3.1558e-026   
     length 0.419626   
     axis -2.01367e-014 90 90   XYZ
    dof rx rz
    limits (-90.0 90.0)
           (-45.0 45.0)
  end
  begin
     id 22 
     name lfingers
     direction 1 -4.4904e-011 6.31161e-026   
     length 0.338313   
     axis -4.02734e-014 90 90   XYZ
    dof rx
    limits (0.0 90.0)
  end
  begin
     id 23
     name lthumb
     direction 0.707107 -6.35004e-011 0.707107   
     length 0.485752   
     axis -90 45 2.85299e-015   XYZ
    dof rx rz
    limits (-45.0 45.0)
           (-45.0 45.0)
  end
  begin
     id 24 
     name rclavicle
     direction -0.968876 0.223791 0.105816   
     length 3.04177  
     axis 0 0 0   XYZ 
    dof ry rz
    limits (-10.0 20.0)
           (-20.0 0.0)
  end
  begin
     id 25 
     name rhumerus
     direction -1 -4.48962e-011 -1.01384e-027  
     length 5.25396   
     axis 180 30 90   XYZ
    dof rx ry rz
    limits (-90.0 60.0)
           (-90.0 90.0)
           (-90.0 90.0)
  end
  begin
     id 26 
     name rradius
     direction -1 -4.48955e-011 8.88542e-027   
     length 3.10567   
     axis 180 30 90   XYZ
    dof rx
    limits (-10.0 170.0)
  end
  begin
     id 27 
     name rwrist
     direction -1 -4.48994e-011 1.5779e-026   
     length 1.55283   
     axis -1.15221e-014 -90 -90   XYZ
    dof ry
    limits (-180.0 0.0)
  end
  begin
     id 28
     name rhand
     direction -1 -4.48891e-011 3.1558e-026   
     length 0.498676   
     axis -2.01367e-014 -90 -90   XYZ
    dof rx rz
    limits (-90.0 90.0)
           (-45.0 45.0)
  end
  begin
     id 29
     name rfingers
     direction -1 -4.48972e-011 6.31161e-026   
     length 0.402045   
     axis -4.02734e-014 -90 -90   XYZ
    dof rx
    limits (0.0 90.0)
  end
  begin
     id 30
     name rthumb
     direction -0.707107 -6.34849e-011 0.707107   
     length 0.577259   
     axis -90 -45 -2.85299e-015   XYZ
    dof rx rz
    limits (-45.0 45.0)
           (-45.0 45.0)
  end
:hierarchy
  begin
    root lhipjoint rhipjoint lowerback
    lhipjoint lfemur
    lfemur ltibia
    ltibia lfoot
    lfoot ltoes
    rhipjoint rfemur
    rfemur rtibia
    rtibia rfoot
    rfoot rtoes
    lowerback upperback
    upperback thorax
    thorax lowerneck lclavicle rclavicle
    lowerneck upperneck
    upperneck head
    lclavicle lhumerus
    lhumerus lradius
    lradius lwrist
    lwrist lhand lthumb
    lhand lfingers
    rclavicle rhumerus
    rhumerus rradius
    rradius rwrist
    rwrist rhand rthumb
    rhand rfingers
  end

#!OML:ASF H:\Pregnant\Project 1\Capture day 1\Session 1\femalepreg.ASF
:FULLY-SPECIFIED
:DEGREES
265
root 3.39727 15.3615 21.3465 18.975 23.1394 -363.355
lowerback -14.5194 0.32244 3.61032
upperback -4.54561 -0.0487433 0.24907
thorax 3.32564 -0.00447928 -1.78617
lowerneck -22.5487 -8.04247 -6.09126
upperneck 25.0979 -9.9341 2.45238
head 12.5021 -4.66051 0.20031
rclavicle -4.13721e-015 2.78299e-015
rhumerus -29.0075 -44.4909 5.99342
rradius 24.74
rwrist 16.0785
rhand -12.1154 -16.5251
rfingers 7.12502
rthumb 13.9458 -46.0374
lclavicle -4.13721e-015 2.78299e-015
lhumerus -25.7859 43.0372 -8.79165
lradius 25.4628
lwrist 7.7906
lhand -22.6159 3.60386
lfingers 7.12502
lthumb 3.814 33.5495
rfemur -33.1259 31.001 19.3883
rtibia 37.1682
rfoot -20.54 2.58302
rtoes -0.927398
lfemur -48.1936 -23.8882 -2.95498
ltibia 41.2995
lfoot -14.4647 2.65778
ltoes -18.7268
266
root 3.45498 15.3578 21.3762 19.0118 21.5682 -363.38
lowerback -14.501 0.355766 3.58666
upperback -4.52559 -0.00577611 0.275186
thorax 3.33948 0.0158744 -1.73814
lowerneck -22.6239 -7.95416 -6.00034
upperneck 25.1445 -9.82757 2.40801
head 12.522 -4.60991 0.185367
rclavicle 4.85283e-014 -7.55382e-015
rhumerus -28.8743 -44.4248 5.87166
rradius 24.8486
rwrist 16.0433
rhand -12.2478 -16.3862
rfingers 7.12502
rthumb 13.8182 -45.9073
lclavicle 4.85283e-014 -7.55382e-015
lhumerus -25.7962 43.2607 -8.95416
lradius 25.4388
lwrist 7.58646
lhand -22.5906 3.46595
lfingers 7.12502
lthumb 3.83849 33.4111
rfemur -33.2612 31.6667 18.9401
rtibia 37.2453
rfoot -20.7082 3.37229
rtoes -0.622209
lfemur -48.7001 -25.4561 -1.42805
ltibia 40.0532
lfoot -14.8465 1.27461
ltoes -18.8209
267
root 3.51301 15.3508 21.4067 19.0396 19.9901 -363.405
lowerback -14.4782 0.390044 3.55831
upperback -4.50182 0.0392676 0.299607
thorax 3.35495 0.0373074 -1.68889
lowerneck -22.6538 -7.87707 -5.92826
upperneck 25.1626 -9.73712 2.38079
head 12.5248 -4.56707 0.179001
rclavicle -5.81445e-015 -3.43897e-014
rhumerus -28.7424 -44.3712 5.74979
rradius 24.9517
rwrist 16.0408
rhand -12.3677 -16.2255
rfingers 7.12502
rthumb 13.7027 -45.7544
lclavicle -5.81445e-015 -3.43897e-014
lhumerus -25.8073 43.467 -9.11538
lradius 25.416
lwrist 7.39234
lhand -22.5921 3.33964
lfingers 7.12502
lthumb 3.83698 33.2848
rfemur -33.4461 32.3672 18.4737
rtibia 37.3964
rfoot -20.8876 4.15874
rtoes -0.124269
lfemur -49.2185 -26.988 0.11516
ltibia 38.8507
lfoot -15.2182 -0.324391
ltoes -19.0214
268
root 3.57137 15.3406 21.4378 19.0562 18.4058 -363.434
lowerback -14.4308 0.423941 3.53445
upperback -4.48514 0.0846928 0.317943
thorax 3.34963 0.0584803 -1.64851
lowerneck -22.6357 -7.80692 -5.87062
upperneck 25.1613 -9.65912 2.37172
head 12.5131 -4.52976 0.181482
rclavicle 6.60959e-015 -3.35946e-014
rhumerus -28.5987 -44.3034 5.60512
rradius 25.0486
rwrist 16.0404
rhand -12.4773 -16.0727
rfingers 7.12502
rthumb 13.597 -45.6086
lclavicle 6.60959e-015 -3.35946e-014
lhumerus -25.8208 43.6484 -9.28554
lradius 25.3968
lwrist 7.19651
lhand -22.5993 3.23041
lfingers 7.12502
lthumb 3.83004 33.1757
rfemur -33.6669 33.0844 17.9969
rtibia 37.6034
rfoot -21.0731 4.95063
rtoes 0.496826
lfemur -49.7491 -28.4383 1.64069
ltibia 37.7076
lfoot -15.5484 -2.15908
ltoes -19.0338
269
root 3.6301 15.3295 21.4696 19.0647 16.8179 -363.466
lowerback -14.3692 0.455504 3.51311
upperback -4.46916 0.127286 0.336774
thorax 3.33568 0.0781039 -1.60958
lowerneck -22.5916 -7.74411 -5.83135
upperneck 25.1434 -9.59053 2.37817
head 12.4923 -4.4969 0.192106
rclavicle 8.43592e-015 -1.5704e-014
rhumerus -28.4254 -44.203 5.4235
rradius 25.1433
rwrist 15.9887
rhand -12.6058 -15.9447
rfingers 7.12502
rthumb 13.4732 -45.4889
lclavicle 8.43592e-015 -1.5704e-014
lhumerus -25.8508 43.8208 -9.46787
lradius 25.3793
lwrist 6.99947
lhand -22.601 3.13354
lfingers 7.12502
lthumb 3.82837 33.0789
rfemur -33.9108 33.8085 17.5105
rtibia 37.8379
rfoot -21.2556 5.75375
rtoes 1.22215
lfemur -50.2903 -29.8016 3.1372
ltibia 36.6315
lfoot -15.7595 -4.19512
ltoes -18.7887
270
root 3.68971 15.3184 21.5032 19.0639 15.2396 -363.505
lowerback -14.3089 0.482942 3.50838
upperback -4.45338 0.162268 0.351274
thorax 3.32173 0.0939519 -1.58592
lowerneck -22.5668 -7.67509 -5.77722
upperneck 25.1493 -9.51417 2.3706
head 12.4826 -4.46049 0.195411
rclavicle 5.73618e-014 -2.98177e-015
rhumerus -28.2323 -44.0585 5.20796
rradius 25.234
rwrist 15.8992
rhand -12.723 -15.8474
rfingers 7.12502
rthumb 13.3602 -45.3991
lclavicle 5.73618e-014 -2.98177e-015
lhumerus -25.8919 43.9837 -9.66753
lradius 25.3639
lwrist 6.7914
lhand -22.5798 3.06037
lfingers 7.12502
lthumb 3.84885 33.0054
rfemur -34.1473 34.5246 17.0275
rtibia 38.0708
rfoot -21.4357 6.55883
rtoes 1.97545
lfemur -50.8256 -31.0665 4.5743
ltibia 35.64
lfoot -15.7662 -6.40249
ltoes -17.9402
271
root 3.75007 15.3085 21.538 19.0606 13.671 -363.545
lowerback -14.2625 0.506642 3.51474
upperback -4.42826 0.190094 0.362506
thorax 3.32465 0.106622 -1.57316
lowerneck -22.6217 -7.59337 -5.69692
upperneck 25.2019 -9.41851 2.337
head 12.5033 -4.4146 0.1847
rclavicle 6.95746e-016 2.0276e-014
rhumerus -28.0269 -43.9313 4.98283
rradius 25.309
rwrist 15.8161
rhand -12.8177 -15.7617
rfingers 7.12502
rthumb 13.2689 -45.3193
lclavicle 6.95746e-016 2.0276e-014
lhumerus -25.9505 44.1646 -9.88523
lradius 25.3472
lwrist 6.56833
lhand -22.5294 2.96542
lfingers 7.12502
lthumb 3.89754 32.9095
rfemur -34.3736 35.228 16.5397
rtibia 38.2839
rfoot -21.6082 7.35764
rtoes 2.68818
lfemur -51.3493 -32.2239 5.92959
ltibia 34.7432
lfoot -15.4223 -8.72583
ltoes -16.0254
272
root 3.81121 15.2995 21.5741 19.0563 12.1174 -363.588
lowerback -14.2307 0.524458 3.53774
upperback -4.39755 0.207298 0.36925
thorax 3.34077 0.114305 -1.57627
lowerneck -22.7415 -7.50092 -5.58904
upperneck 25.2967 -9.30796 2.27786
head 12.5498 -4.36137 0.159773
rclavicle -3.52843e-015 -2.5842e-015
rhumerus -27.8125 -43.8397 4.75588
rradius 25.3613
rwrist 15.7789
rhand -12.8572 -15.6747
rfingers 7.12502
rthumb 13.2309 -45.2348
lclavicle -3.52843e-015 -2.5842e-015
lhumerus -26.0256 44.3245 -10.1162
lradius 25.3375
lwrist 6.36705
lhand -22.4547 2.89212
lfingers 7.12502
lthumb 3.96968 32.8349
rfemur -34.594 35.9261 16.047
rtibia 38.4848
rfoot -21.7783 8.13184
rtoes 3.33529
lfemur -51.8287 -33.2316 7.1457
ltibia 33.9538
lfoot -14.6461 -11.0248
ltoes -13.1438
273
root 3.87261 15.29 21.6105 19.0637 10.5876 -363.634
lowerback -14.2153 0.535206 3.57393
upperback -4.36809 0.212925 0.371716
thorax 3.36381 0.11638 -1.59324
lowerneck -22.9604 -7.39073 -5.43484
upperneck 25.4591 -9.1735 2.17586
head 12.637 -4.29653 0.111197
rclavicle 2.44257e-014 1.64991e-014
rhumerus -27.5973 -43.755 4.52545
rradius 25.3989
rwrist 15.7583
rhand -12.8682 -15.6082
rfingers 7.12502
rthumb 13.2203 -45.169
lclavicle 2.44257e-014 1.64991e-014
lhumerus -26.1099 44.4853 -10.3578
lradius 25.3285
lwrist 6.16916
lhand -22.3638 2.84397
lfingers 7.12502
lthumb 4.05744 32.7851
rfemur -34.8351 36.6028 15.5469
rtibia 38.6951
rfoot -21.9633 8.85658
rtoes 3.78241
lfemur -52.227 -34.0216 8.15116
ltibia 33.276
lfoot -13.4342 -13.1509
ltoes -9.78314
274
root 3.93397 15.2779 21.6456 19.0768 9.07103 -363.681
lowerback -14.1778 0.539166 3.61688
upperback -4.35087 0.210168 0.370375
thorax 3.36159 0.113772 -1.61948
lowerneck -23.1887 -7.27292 -5.28582
upperneck 25.6299 -9.03117 2.08856
head 12.731 -4.22656 0.0699637
rclavicle 4.4975e-015 -6.75868e-015
rhumerus -27.3816 -43.7065 4.3022
rradius 25.4123
rwrist 15.7986
rhand -12.8423 -15.5336
rfingers 7.12502
rthumb 13.2453 -45.0928
lclavicle 4.4975e-015 -6.75868e-015
lhumerus -26.2072 44.6408 -10.613
lradius 25.3194
lwrist 5.96631
lhand -22.2598 2.79062
lfingers 7.12502
lthumb 4.15788 32.7298
rfemur -35.1256 37.2746 15.0284
rtibia 38.9446
rfoot -22.1545 9.54548
rtoes 4.13328
lfemur -52.4566 -34.5288 8.8431
ltibia 32.7145
lfoot -12.0727 -14.8923
ltoes -7.16499
275
root 3.99503 15.2626 21.6784 19.096 7.56449 -363.727
lowerback -14.1109 0.535714 3.65433
upperback -4.34635 0.20017 0.36737
thorax 3.32976 0.106943 -1.64564
lowerneck -23.3995 -7.15461 -5.15337
upperneck 25.7886 -8.89068 2.02615
head 12.8199 -4.15612 0.0413183
rclavicle -5.72748e-015 -3.37934e-015
rhumerus -27.162 -43.6658 4.07601
rradius 25.4102
rwrist 15.8638
rhand -12.8038 -15.4479
rfingers 7.12502
rthumb 13.2823 -45.0047
lclavicle -5.72748e-015 -3.37934e-015
lhumerus -26.3096 44.7675 -10.864
lradius 25.3153
lwrist 5.78942
lhand -22.1602 2.74082
lfingers 7.12502
lthumb 4.25409 32.6781
rfemur -35.4858 37.96 14.4787
rtibia 39.2513
rfoot -22.3544 10.1786
rtoes 4.3687
lfemur -52.4576 -34.7225 9.16566
ltibia 32.2689
lfoot -10.9149 -16.1504
ltoes -6.62445
